<?xml version="1.0" encoding="utf-8"?>
<!-- Generator: Adobe Illustrator 22.1.0, SVG Export Plug-In . SVG Version: 6.00 Build 0)  -->
<svg version="1.1" id="Layer_1" xmlns="http://www.w3.org/2000/svg" xmlns:xlink="http://www.w3.org/1999/xlink" x="0px" y="0px"
	 viewBox="0 0 72 20" style="enable-background:new 0 0 72 20;" xml:space="preserve">
<style type="text/css">
	.st0{fill:#A966FF;}
	.st1{fill:#292C27;}
</style>
<g>
	<path class="st0" d="M29.8,5.7h3v10.8h5.3V19h-8.3V5.7z"/>
	<path class="st0" d="M41.7,7.7c0,0.8-0.6,1.5-1.6,1.5c-1,0-1.6-0.7-1.6-1.5c0-0.9,0.6-1.5,1.6-1.5C41.1,6.1,41.7,6.8,41.7,7.7z
		 M38.6,19V9.3h3V19H38.6z"/>
	<path class="st0" d="M42.1,12.4c0-1.2,0-2.2-0.1-3.1h2.6l0.1,1.3h0.1c0.4-0.6,1.4-1.5,3-1.5c2,0,3.5,1.3,3.5,4.2V19h-3v-5.4
		c0-1.2-0.4-2.1-1.5-2.1c-0.8,0-1.3,0.6-1.5,1.1c-0.1,0.2-0.1,0.5-0.1,0.8V19h-3V12.4z"/>
	<path class="st0" d="M54.7,13.4L54.7,13.4c0.3-0.4,0.5-0.8,0.7-1.2l2-2.9h3.6l-3.5,3.9l4,5.8h-3.7l-2.3-4l-0.8,1v3h-3V5h3V13.4z"/>
	<path class="st0" d="M61.5,17.2c0-1.1,0.7-1.8,1.8-1.8c1.1,0,1.8,0.8,1.8,1.8c0,1.1-0.7,1.8-1.8,1.8C62.3,19,61.5,18.2,61.5,17.2z"
		/>
</g>
<g id="Layer_2">
	<g>
		<path class="st1" d="M4.9,3.8H1.3V1.2h10.4v2.6H8v11H4.9V3.8z"/>
		<path class="st1" d="M8.7,7.8c0-1.5,0-2.5-0.1-3.4h2.6l0.1,1.9h0.1c0.5-1.5,1.7-2.2,2.7-2.2c0.3,0,0.4,0,0.6,0v3
			c-0.2,0-0.5-0.1-0.8-0.1c-1.1,0-1.9,0.6-2.1,1.6c0,0.2-0.1,0.5-0.1,0.7v5.3H8.7V7.8z"/>
		<path class="st1" d="M18.4,2.7c0,0.9-0.6,1.6-1.7,1.6c-1,0-1.6-0.7-1.6-1.6c0-0.9,0.6-1.6,1.6-1.6S18.3,1.7,18.4,2.7z M15.2,14.8
			V4.4h3.1v10.4H15.2z"/>
		<path class="st1" d="M18.8,7.9c0-1.4,0-2.5-0.1-3.5h2.7l0.1,1.4h0c0.7-1.1,1.9-1.7,3.3-1.7c2.2,0,4.1,2,4.1,5.3
			c0,3.8-2.3,5.6-4.5,5.6c-1.2,0-2.1-0.5-2.6-1.2h0V19h-3.1V7.9z M21.8,10.3c0,0.3,0,0.5,0.1,0.7c0.2,0.9,0.9,1.5,1.8,1.5
			c1.3,0,2.1-1.2,2.1-2.9c0-1.7-0.7-2.9-2.1-2.9c-0.9,0-1.6,0.7-1.8,1.6c0,0.2-0.1,0.4-0.1,0.6V10.3z"/>
	</g>
</g>
</svg>
